<svg version="1.2" xmlns="http://www.w3.org/2000/svg" viewBox="0 0 3873 3873" width="300" height="300">
	<defs>
		<linearGradient id="g1" x2="1" gradientUnits="userSpaceOnUse" gradientTransform="matrix(2356.541,0,0,3304.325,758.223,284.344)">
			<stop offset="0" stop-color="oklch(37.8% 0.077 168.94)"/>
			<stop offset="1" stop-color="oklch(14.1% 0.005 285.823)"/>
		</linearGradient>
	</defs>
	<style>
		.s0 { fill: url(#g1) } 
	</style>
	<g id="_Artboards_">
	</g>
	<g id="Layer 1">
		<path id="&lt;Compound Path&gt;" fill-rule="evenodd" class="s0" d="m3070.79 3588.67h-2268.6c-24.28 0-43.97-19.7-43.97-43.97v-3216.37c0-24.3 19.69-43.99 43.97-43.99h2268.6c24.3 0 43.97 19.69 43.97 43.99v3216.4c0 24.27-19.67 43.94-43.97 43.94zm-1694.96-1560.42c179.24 0 325.02-145.87 325.02-325.1v-697.56c0-13.59-11.02-24.61-24.63-24.61-13.6 0-24.61 11.02-24.61 24.61v697.56c0 152.1-123.72 275.85-275.82 275.85-152.11 0-275.83-123.77-275.83-275.85v-808.24c0-48.19 17.77-91.43 56.37-121.26 63.63-49.18 172.04-48.52 234.05 2.92 36.18 30.02 52.17 71.19 52.17 117.8v774.55c0 44.09-35.85 79.93-79.92 79.93-44.09 0-79.93-35.84-79.93-79.93v-738.86c0-13.6-11.02-24.61-24.61-24.61-13.62 0-24.62 11.01-24.62 24.61l0.01 738.86c0 71.22 57.94 129.16 129.15 129.16 71.22 0 129.16-57.94 129.16-129.16v-774.55c0-61.57-22.3-116.17-70-155.71-41.89-34.71-96.24-51.22-150.2-51.22-121.38 0-220.86 80.55-220.86 207.49v808.24c0 179.24 145.88 325.08 325.1 325.08zm1421.81 1157.3c13.6 0 24.63-11.01 24.63-24.61 0-13.61-11.03-24.61-24.63-24.61h-1722.28c-13.6 0-24.62 11-24.62 24.61 0 13.6 11.02 24.61 24.62 24.61zm0-306.1c13.61 0 24.64-11 24.64-24.61 0-13.6-11.03-24.61-24.64-24.61h-1722.27c-13.6 0-24.62 11.01-24.62 24.61 0 13.61 11.02 24.61 24.62 24.61zm0-306.12c13.61 0 24.64-11.01 24.64-24.61 0-13.61-11.03-24.61-24.64-24.61h-1722.27c-13.6 0-24.62 11-24.62 24.61 0 13.6 11.02 24.61 24.62 24.61zm0-306.12c13.61 0 24.64-11.01 24.64-24.61 0-13.61-11.03-24.61-24.64-24.61h-1722.27c-13.61 0-24.62 11-24.62 24.61 0 13.6 11.01 24.61 24.62 24.61zm0-306.07c13.61 0 24.64-11.03 24.64-24.63 0-13.62-11.03-24.62-24.64-24.62h-882.12c-13.62 0-24.63 11-24.63 24.62 0 13.6 11.02 24.63 24.63 24.63zm0-306.11c13.6 0 24.64-11.01 24.64-24.61 0-13.61-11.04-24.63-24.64-24.63h-882.12c-13.61 0-24.63 11.02-24.63 24.63 0 13.6 11.01 24.61 24.63 24.61zm0-306.11c13.6 0 24.63-11.02 24.63-24.63 0-13.6-11.03-24.62-24.63-24.62h-882.12c-13.62 0-24.63 11.02-24.63 24.62 0 13.61 11.01 24.63 24.63 24.63zm0-306.11c13.6 0 24.63-11.01 24.63-24.61 0-13.61-11.03-24.63-24.63-24.63h-882.13c-13.6 0-24.62 11.02-24.62 24.63 0 13.6 11.01 24.61 24.62 24.61zm0-306.12c13.61 0 24.64-11.01 24.64-24.61 0-13.61-11.03-24.63-24.64-24.63h-882.12c-13.62 0-24.62 11.02-24.62 24.63 0 13.6 11 24.61 24.62 24.61z"/>
	</g>
</svg>